# xmcd
#
# Track frame offsets: 
#        150
#        19246
#        36481
#        57648
#        72136
#        90822
#        111338
#        134840
#
# Disc length: 2097 seconds
#
# Revision: 0
# Processed by: cddbd v1.5.2PL0 Copyright (c) Steve Scherf et al.
# Submitted via: ExactAudioCopy v1.0b3
#
DISCID=73082f08
DTITLE=Christine Camp - Desert Rain
DYEAR=1999
DGENRE=Contemporary Christian
TTITLE0=Just You And Me
TTITLE1=Light Bearers
TTITLE2=Cross To Bear
TTITLE3=Says the Clay
TTITLE4=Freedom
TTITLE5=Friend
TTITLE6=One Drop Of Blood
TTITLE7=Let The Spirit Come
EXTD=
EXTT0=
EXTT1=
EXTT2=
EXTT3=
EXTT4=
EXTT5=
EXTT6=
EXTT7=
PLAYORDER=
